<?xml version="1.0" encoding="utf-8"?>
<svg xmlns="http://www.w3.org/2000/svg" xmlns:xlink="http://www.w3.org/1999/xlink" style="margin: auto; background: rgb(236, 236, 236); display: block; shape-rendering: auto;" width="200px" height="200px" viewBox="0 0 100 100" preserveAspectRatio="xMidYMid">
<g transform="rotate(0 50 50)">
  <rect x="49" y="28.5" rx="0" ry="0" width="2" height="11" fill="#232323">
    <animate attributeName="opacity" values="1;0" keyTimes="0;1" dur="0.78125s" begin="-0.7211538461538461s" repeatCount="indefinite"></animate>
  </rect>
</g><g transform="rotate(27.692307692307693 50 50)">
  <rect x="49" y="28.5" rx="0" ry="0" width="2" height="11" fill="#232323">
    <animate attributeName="opacity" values="1;0" keyTimes="0;1" dur="0.78125s" begin="-0.6610576923076923s" repeatCount="indefinite"></animate>
  </rect>
</g><g transform="rotate(55.38461538461539 50 50)">
  <rect x="49" y="28.5" rx="0" ry="0" width="2" height="11" fill="#232323">
    <animate attributeName="opacity" values="1;0" keyTimes="0;1" dur="0.78125s" begin="-0.6009615384615384s" repeatCount="indefinite"></animate>
  </rect>
</g><g transform="rotate(83.07692307692308 50 50)">
  <rect x="49" y="28.5" rx="0" ry="0" width="2" height="11" fill="#232323">
    <animate attributeName="opacity" values="1;0" keyTimes="0;1" dur="0.78125s" begin="-0.5408653846153846s" repeatCount="indefinite"></animate>
  </rect>
</g><g transform="rotate(110.76923076923077 50 50)">
  <rect x="49" y="28.5" rx="0" ry="0" width="2" height="11" fill="#232323">
    <animate attributeName="opacity" values="1;0" keyTimes="0;1" dur="0.78125s" begin="-0.4807692307692307s" repeatCount="indefinite"></animate>
  </rect>
</g><g transform="rotate(138.46153846153845 50 50)">
  <rect x="49" y="28.5" rx="0" ry="0" width="2" height="11" fill="#232323">
    <animate attributeName="opacity" values="1;0" keyTimes="0;1" dur="0.78125s" begin="-0.4206730769230769s" repeatCount="indefinite"></animate>
  </rect>
</g><g transform="rotate(166.15384615384616 50 50)">
  <rect x="49" y="28.5" rx="0" ry="0" width="2" height="11" fill="#232323">
    <animate attributeName="opacity" values="1;0" keyTimes="0;1" dur="0.78125s" begin="-0.3605769230769231s" repeatCount="indefinite"></animate>
  </rect>
</g><g transform="rotate(193.84615384615384 50 50)">
  <rect x="49" y="28.5" rx="0" ry="0" width="2" height="11" fill="#232323">
    <animate attributeName="opacity" values="1;0" keyTimes="0;1" dur="0.78125s" begin="-0.3004807692307692s" repeatCount="indefinite"></animate>
  </rect>
</g><g transform="rotate(221.53846153846155 50 50)">
  <rect x="49" y="28.5" rx="0" ry="0" width="2" height="11" fill="#232323">
    <animate attributeName="opacity" values="1;0" keyTimes="0;1" dur="0.78125s" begin="-0.24038461538461536s" repeatCount="indefinite"></animate>
  </rect>
</g><g transform="rotate(249.23076923076923 50 50)">
  <rect x="49" y="28.5" rx="0" ry="0" width="2" height="11" fill="#232323">
    <animate attributeName="opacity" values="1;0" keyTimes="0;1" dur="0.78125s" begin="-0.18028846153846154s" repeatCount="indefinite"></animate>
  </rect>
</g><g transform="rotate(276.9230769230769 50 50)">
  <rect x="49" y="28.5" rx="0" ry="0" width="2" height="11" fill="#232323">
    <animate attributeName="opacity" values="1;0" keyTimes="0;1" dur="0.78125s" begin="-0.12019230769230768s" repeatCount="indefinite"></animate>
  </rect>
</g><g transform="rotate(304.61538461538464 50 50)">
  <rect x="49" y="28.5" rx="0" ry="0" width="2" height="11" fill="#232323">
    <animate attributeName="opacity" values="1;0" keyTimes="0;1" dur="0.78125s" begin="-0.06009615384615384s" repeatCount="indefinite"></animate>
  </rect>
</g><g transform="rotate(332.3076923076923 50 50)">
  <rect x="49" y="28.5" rx="0" ry="0" width="2" height="11" fill="#232323">
    <animate attributeName="opacity" values="1;0" keyTimes="0;1" dur="0.78125s" begin="0s" repeatCount="indefinite"></animate>
  </rect>
</g>
<!-- [ldio] generated by https://loading.io/ --></svg>